<mxfile host="Electron" modified="2024-07-23T13:18:16.526Z" agent="Mozilla/5.0 (Macintosh; Intel Mac OS X 10_15_7) AppleWebKit/537.36 (KHTML, like Gecko) draw.io/21.8.2 Chrome/114.0.5735.289 Electron/25.8.1 Safari/537.36" etag="kzOOKPmeXXywk76JYLU0" version="21.8.2" type="device" pages="2">
  <diagram id="C5RBs43oDa-KdzZeNtuy" name="open">
    <mxGraphModel dx="1242" dy="890" grid="1" gridSize="10" guides="1" tooltips="1" connect="1" arrows="1" fold="1" page="1" pageScale="1" pageWidth="827" pageHeight="1169" math="0" shadow="1">
      <root>
        <mxCell id="WIyWlLk6GJQsqaUBKTNV-0" />
        <mxCell id="WIyWlLk6GJQsqaUBKTNV-1" parent="WIyWlLk6GJQsqaUBKTNV-0" />
        <mxCell id="fWMs-AWbwwGjTjC42o2T-5" value="" style="edgeStyle=orthogonalEdgeStyle;rounded=0;orthogonalLoop=1;jettySize=auto;html=1;" parent="WIyWlLk6GJQsqaUBKTNV-1" source="WIyWlLk6GJQsqaUBKTNV-3" target="fWMs-AWbwwGjTjC42o2T-1" edge="1">
          <mxGeometry relative="1" as="geometry" />
        </mxCell>
        <mxCell id="WIyWlLk6GJQsqaUBKTNV-3" value="Constructor" style="rounded=1;whiteSpace=wrap;html=1;fontSize=12;glass=0;strokeWidth=1;shadow=0;" parent="WIyWlLk6GJQsqaUBKTNV-1" vertex="1">
          <mxGeometry x="240" y="41" width="200" height="40" as="geometry" />
        </mxCell>
        <mxCell id="fWMs-AWbwwGjTjC42o2T-3" value="" style="edgeStyle=orthogonalEdgeStyle;rounded=0;orthogonalLoop=1;jettySize=auto;html=1;" parent="WIyWlLk6GJQsqaUBKTNV-1" source="fWMs-AWbwwGjTjC42o2T-1" target="fWMs-AWbwwGjTjC42o2T-2" edge="1">
          <mxGeometry relative="1" as="geometry" />
        </mxCell>
        <mxCell id="fWMs-AWbwwGjTjC42o2T-1" value="InitEvent" style="rounded=1;whiteSpace=wrap;html=1;" parent="WIyWlLk6GJQsqaUBKTNV-1" vertex="1">
          <mxGeometry x="240" y="121" width="200" height="40" as="geometry" />
        </mxCell>
        <mxCell id="fWMs-AWbwwGjTjC42o2T-8" value="" style="edgeStyle=orthogonalEdgeStyle;rounded=0;orthogonalLoop=1;jettySize=auto;html=1;" parent="WIyWlLk6GJQsqaUBKTNV-1" source="fWMs-AWbwwGjTjC42o2T-2" target="fWMs-AWbwwGjTjC42o2T-7" edge="1">
          <mxGeometry relative="1" as="geometry" />
        </mxCell>
        <mxCell id="fWMs-AWbwwGjTjC42o2T-2" value="QueryParametersChangeEvent" style="whiteSpace=wrap;html=1;rounded=1;" parent="WIyWlLk6GJQsqaUBKTNV-1" vertex="1">
          <mxGeometry x="240" y="201" width="200" height="40" as="geometry" />
        </mxCell>
        <mxCell id="fWMs-AWbwwGjTjC42o2T-39" style="edgeStyle=orthogonalEdgeStyle;rounded=0;orthogonalLoop=1;jettySize=auto;html=1;entryX=0.5;entryY=0;entryDx=0;entryDy=0;" parent="WIyWlLk6GJQsqaUBKTNV-1" source="fWMs-AWbwwGjTjC42o2T-7" target="fWMs-AWbwwGjTjC42o2T-11" edge="1">
          <mxGeometry relative="1" as="geometry" />
        </mxCell>
        <mxCell id="fWMs-AWbwwGjTjC42o2T-7" value="BeforeShowEvent" style="whiteSpace=wrap;html=1;rounded=1;" parent="WIyWlLk6GJQsqaUBKTNV-1" vertex="1">
          <mxGeometry x="240" y="281" width="200" height="40" as="geometry" />
        </mxCell>
        <mxCell id="fWMs-AWbwwGjTjC42o2T-11" value="ReadyEvent" style="whiteSpace=wrap;html=1;rounded=1;" parent="WIyWlLk6GJQsqaUBKTNV-1" vertex="1">
          <mxGeometry x="240" y="360" width="200" height="40" as="geometry" />
        </mxCell>
        <mxCell id="BLMlpl0zYS9kHrcX5G3V-19" value="" style="endArrow=none;dashed=1;html=1;rounded=0;exitX=1;exitY=0.5;exitDx=0;exitDy=0;entryX=0;entryY=0.5;entryDx=0;entryDy=0;" parent="WIyWlLk6GJQsqaUBKTNV-1" source="fWMs-AWbwwGjTjC42o2T-2" target="BLMlpl0zYS9kHrcX5G3V-20" edge="1">
          <mxGeometry width="50" height="50" relative="1" as="geometry">
            <mxPoint x="570" y="260" as="sourcePoint" />
            <mxPoint x="530" y="230" as="targetPoint" />
          </mxGeometry>
        </mxCell>
        <mxCell id="BLMlpl0zYS9kHrcX5G3V-20" value="Only in case of navigation" style="text;html=1;align=center;verticalAlign=middle;whiteSpace=wrap;rounded=0;fontSize=14;" parent="WIyWlLk6GJQsqaUBKTNV-1" vertex="1">
          <mxGeometry x="480" y="189" width="130" height="64" as="geometry" />
        </mxCell>
      </root>
    </mxGraphModel>
  </diagram>
  <diagram name="close" id="uwNbiPdAZ2ocR5cxt3bH">
    <mxGraphModel dx="1242" dy="890" grid="1" gridSize="10" guides="1" tooltips="1" connect="1" arrows="1" fold="1" page="1" pageScale="1" pageWidth="827" pageHeight="1169" math="0" shadow="1">
      <root>
        <mxCell id="uOfWWW4hIMGXViJ6pdpK-0" />
        <mxCell id="uOfWWW4hIMGXViJ6pdpK-1" parent="uOfWWW4hIMGXViJ6pdpK-0" />
        <mxCell id="uOfWWW4hIMGXViJ6pdpK-11" style="edgeStyle=orthogonalEdgeStyle;rounded=0;orthogonalLoop=1;jettySize=auto;html=1;entryX=0.5;entryY=0;entryDx=0;entryDy=0;" edge="1" parent="uOfWWW4hIMGXViJ6pdpK-1" source="uOfWWW4hIMGXViJ6pdpK-13" target="uOfWWW4hIMGXViJ6pdpK-15">
          <mxGeometry relative="1" as="geometry">
            <mxPoint x="370" y="240" as="targetPoint" />
          </mxGeometry>
        </mxCell>
        <mxCell id="uOfWWW4hIMGXViJ6pdpK-12" value="&lt;span style=&quot;font-size: 12px; text-wrap: wrap; background-color: rgb(251, 251, 251);&quot;&gt;Closing view&lt;/span&gt;" style="edgeLabel;html=1;align=center;verticalAlign=middle;resizable=0;points=[];" vertex="1" connectable="0" parent="uOfWWW4hIMGXViJ6pdpK-11">
          <mxGeometry x="-0.1615" y="2" relative="1" as="geometry">
            <mxPoint x="-2" y="8" as="offset" />
          </mxGeometry>
        </mxCell>
        <mxCell id="uOfWWW4hIMGXViJ6pdpK-13" value="" style="shape=umlActor;verticalLabelPosition=bottom;verticalAlign=top;html=1;outlineConnect=0;" vertex="1" parent="uOfWWW4hIMGXViJ6pdpK-1">
          <mxGeometry x="355" y="80" width="30" height="60" as="geometry" />
        </mxCell>
        <mxCell id="uOfWWW4hIMGXViJ6pdpK-14" style="edgeStyle=orthogonalEdgeStyle;rounded=0;orthogonalLoop=1;jettySize=auto;html=1;entryX=0.5;entryY=0;entryDx=0;entryDy=0;" edge="1" parent="uOfWWW4hIMGXViJ6pdpK-1" source="uOfWWW4hIMGXViJ6pdpK-15" target="uOfWWW4hIMGXViJ6pdpK-20">
          <mxGeometry relative="1" as="geometry" />
        </mxCell>
        <mxCell id="uOfWWW4hIMGXViJ6pdpK-15" value="BeforeCloseEvent" style="whiteSpace=wrap;html=1;rounded=1;" vertex="1" parent="uOfWWW4hIMGXViJ6pdpK-1">
          <mxGeometry x="270" y="225" width="200" height="40" as="geometry" />
        </mxCell>
        <mxCell id="uOfWWW4hIMGXViJ6pdpK-16" value="AfterCloseEvent" style="whiteSpace=wrap;html=1;rounded=1;" vertex="1" parent="uOfWWW4hIMGXViJ6pdpK-1">
          <mxGeometry x="270" y="415" width="200" height="40" as="geometry" />
        </mxCell>
        <mxCell id="uOfWWW4hIMGXViJ6pdpK-17" value="No" style="edgeStyle=orthogonalEdgeStyle;rounded=0;orthogonalLoop=1;jettySize=auto;html=1;entryX=0.5;entryY=0;entryDx=0;entryDy=0;" edge="1" parent="uOfWWW4hIMGXViJ6pdpK-1" source="uOfWWW4hIMGXViJ6pdpK-20" target="uOfWWW4hIMGXViJ6pdpK-16">
          <mxGeometry relative="1" as="geometry" />
        </mxCell>
        <mxCell id="uOfWWW4hIMGXViJ6pdpK-18" style="edgeStyle=orthogonalEdgeStyle;rounded=0;orthogonalLoop=1;jettySize=auto;html=1;entryX=0;entryY=0.5;entryDx=0;entryDy=0;" edge="1" parent="uOfWWW4hIMGXViJ6pdpK-1" source="uOfWWW4hIMGXViJ6pdpK-20" target="uOfWWW4hIMGXViJ6pdpK-21">
          <mxGeometry relative="1" as="geometry" />
        </mxCell>
        <mxCell id="uOfWWW4hIMGXViJ6pdpK-19" value="Yes" style="edgeLabel;html=1;align=center;verticalAlign=middle;resizable=0;points=[];" vertex="1" connectable="0" parent="uOfWWW4hIMGXViJ6pdpK-18">
          <mxGeometry x="-0.02" y="-1" relative="1" as="geometry">
            <mxPoint x="-9" y="-1" as="offset" />
          </mxGeometry>
        </mxCell>
        <mxCell id="uOfWWW4hIMGXViJ6pdpK-20" value="&lt;div style=&quot;background-color:#ffffff;color:#080808&quot;&gt;&lt;pre style=&quot;&quot;&gt;&lt;font style=&quot;font-size: 12px;&quot; face=&quot;Helvetica&quot;&gt;Close prevented?&lt;/font&gt;&lt;/pre&gt;&lt;/div&gt;" style="rhombus;whiteSpace=wrap;html=1;rounded=1;" vertex="1" parent="uOfWWW4hIMGXViJ6pdpK-1">
          <mxGeometry x="250" y="305" width="240" height="60" as="geometry" />
        </mxCell>
        <mxCell id="uOfWWW4hIMGXViJ6pdpK-21" value="View closing interrupted" style="ellipse;whiteSpace=wrap;html=1;rounded=1;" vertex="1" parent="uOfWWW4hIMGXViJ6pdpK-1">
          <mxGeometry x="590" y="295" width="80" height="80" as="geometry" />
        </mxCell>
      </root>
    </mxGraphModel>
  </diagram>
</mxfile>
